<svg xmlns="http://www.w3.org/2000/svg" xmlns:xlink="http://www.w3.org/1999/xlink" version="1.1" style="enable-background:new 0 0 700 700;" xml:space="preserve" width="556.5423723699535" height="349.17514013489915"><rect id="backgroundrect" width="100%" height="100%" x="0" y="0" fill="none" stroke="none"/>
<style type="text/css">
	.st0{display:none;}
	.st1{display:inline;fill:#F4F4F4;}
	.st2{fill:url(#SVGID_1_);}
	.st3{fill:url(#SVGID_2_);}
	.st4{fill:url(#SVGID_3_);}
	.st5{fill:url(#SVGID_4_);}
	.st6{fill:url(#SVGID_5_);}
	.st7{fill:url(#SVGID_6_);}
	.st8{fill:url(#SVGID_7_);}
	.st9{fill:url(#SVGID_8_);}
</style>



<g class="currentLayer" style=""><title>Layer 1</title><g id="Layer_3" class="st0">
	<circle class="st1" cx="344.3999938964844" cy="349.8999938964844" r="356.29998779296875" id="svg_1"/>
</g><g id="Layer_1">
</g><g id="Layer_2" class="">
	<g id="svg_2">
		<linearGradient id="SVGID_1_" gradientUnits="userSpaceOnUse" x1="417.3389892578125" y1="379.4139099121094" x2="550.2877807617188" y2="149.13980102539062" transform="translate(-73.44632720947266,-174.0113067626953) ">
			<stop offset="0" style="stop-color:#93278F"/>
			<stop offset="1" style="stop-color:#00062A"/>
		</linearGradient>
		<path class="st2" d="M513.7536727905274,169.88869323730466 H282.25367279052733 V31.188693237304676 c0,-16.7 13.5,-30.2 30.2,-30.2 h201 c16.9,0 30.6,13.7 30.6,30.6 v107.8 C544.0536727905273,156.2886932373047 530.4536727905273,169.88869323730466 513.7536727905274,169.88869323730466 z" id="svg_3"/>
		<linearGradient id="SVGID_2_" gradientUnits="userSpaceOnUse" x1="439.2611083984375" y1="277.2781982421875" x2="386.41839599609375" y2="368.8044128417969" transform="translate(-73.44632720947266,-174.0113067626953) ">
			<stop offset="0" style="stop-color:#FFFF61"/>
			<stop offset="0.4991" style="stop-color:#FFD856"/>
			<stop offset="1" style="stop-color:#FFB44D"/>
		</linearGradient>
		<polygon class="st3" points="348.65367889404297,93.38868713378906 281.55367279052734,93.38868713378906 281.55367279052734,176.68870544433594 413.4536666870117,176.68870544433594 " id="svg_4"/>
		<linearGradient id="SVGID_3_" gradientUnits="userSpaceOnUse" x1="383.9036865234375" y1="459.652587890625" x2="490.2807922363281" y2="353.275390625" transform="translate(-73.44632720947266,-174.0113067626953) ">
			<stop offset="0" style="stop-color:#FBB03B"/>
			<stop offset="0.1862" style="stop-color:#FAA839"/>
			<stop offset="0.4808" style="stop-color:#F79133"/>
			<stop offset="0.845" style="stop-color:#F36C29"/>
			<stop offset="1" style="stop-color:#F15A24"/>
		</linearGradient>
		<polygon class="st4" points="282.15367889404297,257.38868713378906 476.7536849975586,257.38868713378906 413.4536666870117,175.88868713378906 282.15367889404297,175.88868713378906 " id="svg_5"/>
		<linearGradient id="SVGID_4_" gradientUnits="userSpaceOnUse" x1="399.1099853515625" y1="561.3278198242188" x2="539.4141235351562" y2="421.0237121582031" transform="translate(-73.44632720947266,-174.0113067626953) ">
			<stop offset="0" style="stop-color:#D4145A"/>
			<stop offset="0.2074" style="stop-color:#CC165A"/>
			<stop offset="0.5357" style="stop-color:#B51C5B"/>
			<stop offset="0.9416" style="stop-color:#90255D"/>
			<stop offset="1" style="stop-color:#8A275D"/>
		</linearGradient>
		<polygon class="st5" points="475.55367279052734,256.5886993408203 282.15367889404297,256.5886993408203 282.15367889404297,343.8887176513672 543.3536605834961,343.8887176513672 " id="svg_6"/>
		<linearGradient id="SVGID_5_" gradientUnits="userSpaceOnUse" x1="88.28479766845703" y1="337.701904296875" x2="273.7721862792969" y2="152.21449279785156" transform="translate(-73.44632720947266,-174.0113067626953) ">
			<stop offset="0" style="stop-color:#29ABE2"/>
			<stop offset="0" style="stop-color:#00062A"/>
			<stop offset="1" style="stop-color:#228EC2"/>
		</linearGradient>
		<path class="st6" d="M44.15367279052734,176.2886932373047 h102.6 l104.8,-130.7 v-0.5 c0,-21.2 -17.8,-38.5 -39.7,-38.5 H44.15367279052734 c-21.9,0 -39.7,17.2 -39.7,38.5 v92.7 C4.553672790527344,158.9886932373047 22.253672790527347,176.2886932373047 44.15367279052734,176.2886932373047 z" id="svg_7"/>
		<g id="svg_8">
			<linearGradient id="SVGID_6_" gradientUnits="userSpaceOnUse" x1="89.05269622802734" y1="474.1593933105469" x2="325.06390380859375" y2="474.1593933105469" transform="translate(-73.44632720947266,-174.0113067626953) ">
				<stop offset="0" style="stop-color:#8E2758"/>
				<stop offset="1" style="stop-color:#D4145A"/>
			</linearGradient>
			<path class="st7" d="M225.45367279052732,343.78869323730464 c15.2,-5.5 26.1,-19.5 26.1,-36 v-51.3 H80.95367279052735 l-65.4,80.5 c1.2,1 2.4,1.9 3.7,2.7 c2.6,1.6 5.3,3 8.3,4.1 H225.45367279052732 z" id="svg_9"/>
		</g>
		<linearGradient id="SVGID_7_" gradientUnits="userSpaceOnUse" x1="192.79409790039062" y1="470.4132995605469" x2="307.2909851074219" y2="355.9164123535156" transform="translate(-73.44632720947266,-174.0113067626953) ">
			<stop offset="0" style="stop-color:#F15A24"/>
			<stop offset="1" style="stop-color:#FBB03B"/>
		</linearGradient>
		<path class="st8" d="M251.65367279052737,257.38869323730466 v-42.3 c0,-21.2 -18,-38.5 -40.2,-38.5 h-65.6 l-65.5,80.7 H251.65367279052737 z" id="svg_10"/>
		<linearGradient id="SVGID_8_" gradientUnits="userSpaceOnUse" x1="365.0306091308594" y1="272.989501953125" x2="400.5382080078125" y2="211.48849487304688" transform="translate(-73.44632720947266,-174.0113067626953) ">
			<stop offset="0" style="stop-color:#8CC69E"/>
			<stop offset="1" style="stop-color:#39B54A"/>
		</linearGradient>
		<path class="st9" d="M348.15367279052737,93.38869323730466 l-60.7,-78.8 c-3.5,4 -5.6,9.2 -5.6,14.8 v63.9 H348.15367279052737 z" id="svg_11"/>
	</g>
</g></g></svg>